REM DIRINDEX 1\2,1\3,1\4,1\5
REM DIRNAME "folder01","folder02","folder03","folder04","folder05"
TITLE ""
FILE "1Q_j_2301-2313.mp3" MP3
  TRACK 01 AUDIO
    TITLE "0:"
    INDEX 01 00:00:00
  TRACK 02 AUDIO
    TITLE "2:cjc172_0604"
    INDEX 01 00:00:26
  TRACK 03 AUDIO
    TITLE "0:"
    INDEX 01 00:02:11
  TRACK 04 AUDIO
    TITLE "3:cjc172_0605"
    INDEX 01 00:02:58
  TRACK 05 AUDIO
    TITLE "0:"
    INDEX 01 00:04:71
  TRACK 06 AUDIO
    TITLE "4:cjc172_0606"
    INDEX 01 00:05:06
  TRACK 07 AUDIO
    TITLE "0:"
    INDEX 01 00:07:65
  TRACK 08 AUDIO
    TITLE "5:cjc172_0607"
    INDEX 01 00:07:73
  TRACK 09 AUDIO
    TITLE "0:"
    INDEX 01 00:14:07
  TRACK 10 AUDIO
    TITLE "3:cjc172_0608"
    INDEX 01 00:14:54
  TRACK 11 AUDIO
    TITLE "0:"
    INDEX 01 00:16:03
  TRACK 12 AUDIO
    TITLE "4:cjc172_0609"
    INDEX 01 00:16:13
  TRACK 13 AUDIO
    TITLE "0:"
    INDEX 01 00:18:26
  TRACK 14 AUDIO
    TITLE "5:cjc172_0610"
    INDEX 01 00:18:34
  TRACK 15 AUDIO
    TITLE "0:"
    INDEX 01 00:25:02
  TRACK 16 AUDIO
    TITLE "3:cjc172_0611"
    INDEX 01 00:25:49
  TRACK 17 AUDIO
    TITLE "0:"
    INDEX 01 00:26:72
  TRACK 18 AUDIO
    TITLE "4:cjc172_0612"
    INDEX 01 00:27:05
  TRACK 19 AUDIO
    TITLE "0:"
    INDEX 01 00:29:30
  TRACK 20 AUDIO
    TITLE "5:cjc172_0613"
    INDEX 01 00:29:37
  TRACK 21 AUDIO
    TITLE "0:"
    INDEX 01 00:35:34
  TRACK 22 AUDIO
    TITLE "3:cjc172_0614"
    INDEX 01 00:36:06
  TRACK 23 AUDIO
    TITLE "0:"
    INDEX 01 00:37:29
  TRACK 24 AUDIO
    TITLE "4:cjc172_0615"
    INDEX 01 00:37:39
  TRACK 25 AUDIO
    TITLE "0:"
    INDEX 01 00:39:69
  TRACK 26 AUDIO
    TITLE "5:cjc172_0616"
    INDEX 01 00:40:02
  TRACK 27 AUDIO
    TITLE "0:"
    INDEX 01 00:46:36
  TRACK 28 AUDIO
    TITLE "3:cjc172_0617"
    INDEX 01 00:47:06
  TRACK 29 AUDIO
    TITLE "0:"
    INDEX 01 00:48:43
  TRACK 30 AUDIO
    TITLE "4:cjc172_0618"
    INDEX 01 00:48:50
  TRACK 31 AUDIO
    TITLE "0:"
    INDEX 01 00:50:67
  TRACK 32 AUDIO
    TITLE "5:cjc172_0619"
    INDEX 01 00:51:00
  TRACK 33 AUDIO
    TITLE "0:"
    INDEX 01 00:55:25
  TRACK 34 AUDIO
    TITLE "3:cjc172_0620"
    INDEX 01 00:55:72
  TRACK 35 AUDIO
    TITLE "0:"
    INDEX 01 00:56:73
  TRACK 36 AUDIO
    TITLE "4:cjc172_0621"
    INDEX 01 00:57:18
  TRACK 37 AUDIO
    TITLE "0:"
    INDEX 01 00:59:40
  TRACK 38 AUDIO
    TITLE "5:cjc172_0622"
    INDEX 01 00:59:46
  TRACK 39 AUDIO
    TITLE "0:"
    INDEX 01 01:05:65
  TRACK 40 AUDIO
    TITLE "3:cjc172_0623"
    INDEX 01 01:06:35
  TRACK 41 AUDIO
    TITLE "0:"
    INDEX 01 01:07:67
  TRACK 42 AUDIO
    TITLE "4:cjc172_0624"
    INDEX 01 01:08:00
  TRACK 43 AUDIO
    TITLE "0:"
    INDEX 01 01:10:31
  TRACK 44 AUDIO
    TITLE "5:cjc172_0625"
    INDEX 01 01:10:34
  TRACK 45 AUDIO
    TITLE "0:"
    INDEX 01 01:17:19
  TRACK 46 AUDIO
    TITLE "3:cjc172_0626"
    INDEX 01 01:17:64
  TRACK 47 AUDIO
    TITLE "0:"
    INDEX 01 01:19:04
  TRACK 48 AUDIO
    TITLE "4:cjc172_0627"
    INDEX 01 01:19:12
  TRACK 49 AUDIO
    TITLE "0:"
    INDEX 01 01:21:32
  TRACK 50 AUDIO
    TITLE "5:cjc172_0628"
    INDEX 01 01:21:40
  TRACK 51 AUDIO
    TITLE "0:"
    INDEX 01 01:26:59
  TRACK 52 AUDIO
    TITLE "3:cjc172_0629"
    INDEX 01 01:27:31
  TRACK 53 AUDIO
    TITLE "0:"
    INDEX 01 01:28:73
  TRACK 54 AUDIO
    TITLE "4:cjc172_0630"
    INDEX 01 01:29:08
  TRACK 55 AUDIO
    TITLE "0:"
    INDEX 01 01:30:59
  TRACK 56 AUDIO
    TITLE "5:cjc172_0631"
    INDEX 01 01:30:66
  TRACK 57 AUDIO
    TITLE "0:"
    INDEX 01 01:37:00
  TRACK 58 AUDIO
    TITLE "3:cjc172_0632"
    INDEX 01 01:37:45
  TRACK 59 AUDIO
    TITLE "0:"
    INDEX 01 01:38:64
  TRACK 60 AUDIO
    TITLE "4:cjc172_0633"
    INDEX 01 01:39:01
  TRACK 61 AUDIO
    TITLE "0:"
    INDEX 01 01:42:64
  TRACK 62 AUDIO
    TITLE "5:cjc172_0634"
    INDEX 01 01:42:70
  TRACK 63 AUDIO
    TITLE "0:"
    INDEX 01 01:49:64
  TRACK 64 AUDIO
    TITLE "3:cjc172_0635"
    INDEX 01 01:50:34
  TRACK 65 AUDIO
    TITLE "0:"
    INDEX 01 01:52:43
  TRACK 66 AUDIO
    TITLE "4:cjc172_0636"
    INDEX 01 01:52:50
  TRACK 67 AUDIO
    TITLE "0:"
    INDEX 01 01:55:35
  TRACK 68 AUDIO
    TITLE "5:cjc172_0637"
    INDEX 01 01:55:41
  TRACK 69 AUDIO
    TITLE "0:"
    INDEX 01 02:00:70
  TRACK 70 AUDIO
    TITLE "3:cjc172_0638"
    INDEX 01 02:01:38
  TRACK 71 AUDIO
    TITLE "0:"
    INDEX 01 02:03:27
  TRACK 72 AUDIO
    TITLE "4:cjc172_0639"
    INDEX 01 02:03:40
  TRACK 73 AUDIO
    TITLE "0:"
    INDEX 01 02:09:10
  TRACK 74 AUDIO
    TITLE "5:cjc172_0640"
    INDEX 01 02:09:16
  TRACK 75 AUDIO
    TITLE "0:"
    INDEX 01 02:15:04
  TRACK 76 AUDIO
    TITLE "3:cjc172_0641"
    INDEX 01 02:15:52
  TRACK 77 AUDIO
    TITLE "0:"
    INDEX 01 02:17:07
  TRACK 78 AUDIO
    TITLE "4:cjc172_0642"
    INDEX 01 02:17:17
  TRACK 79 AUDIO
    TITLE "0:"
    INDEX 01 02:18:50
  TRACK 80 AUDIO
    TITLE "5:cjc172_0643"
    INDEX 01 02:18:60
  TRACK 81 AUDIO
    TITLE "0:"
    INDEX 01 02:22:63
